<?xml version="1.0" encoding="UTF-8"?>
<svg width="89px" height="18px" viewBox="0 0 89 18" version="1.1" xmlns="http://www.w3.org/2000/svg" xmlns:xlink="http://www.w3.org/1999/xlink">
    <!-- Generator: Sketch 53.1 (72631) - https://sketchapp.com -->
    <title>Shape</title>
    <desc>Created with Sketch.</desc>
    <g id="Page-1" stroke="none" stroke-width="1" fill="none" fill-rule="evenodd">
        <g id="elements" transform="translate(-1062.000000, -147.000000)" fill="#00B1EB" fill-rule="nonzero">
            <path d="M1073.85864,147.433838 C1074.38379,147.433838 1074.86108,147.565186 1075.2915,147.827576 C1075.72168,148.090393 1076.06445,148.513 1076.31958,149.096374 C1076.57471,149.679748 1076.72778,150.427246 1076.77905,151.338562 C1076.83008,152.250183 1076.73877,153.347473 1076.50537,154.630737 C1076.30127,155.753845 1075.99487,156.883728 1075.58667,158.021545 C1075.17847,159.158874 1074.62769,160.187256 1073.9353,161.105713 C1073.24243,162.024414 1072.39307,162.775574 1071.38696,163.358887 C1070.38062,163.942261 1069.18481,164.233948 1067.79907,164.233948 C1066.98267,164.233948 1066.19873,164.106384 1065.44775,163.851074 C1064.69653,163.595947 1064.05151,163.198425 1063.51172,162.658997 C1062.97241,162.119385 1062.57495,161.430176 1062.31982,160.591797 C1062.0647,159.753235 1062.03906,158.75061 1062.24316,157.583862 C1062.24316,157.583862 1062.25024,157.562073 1062.26514,157.518433 C1062.27954,157.474487 1062.30493,157.354248 1062.34155,157.157226 C1062.37793,156.960327 1062.42896,156.665161 1062.49463,156.271423 C1062.5603,155.877685 1062.65503,155.33435 1062.77905,154.641601 C1062.90308,153.949036 1063.05957,153.085022 1063.24927,152.049499 C1063.43896,151.014343 1063.66479,149.745544 1063.92749,148.243408 C1063.92749,148.199524 1063.95679,148.162903 1064.01489,148.134033 C1064.04419,148.119263 1064.06592,148.104797 1064.08057,148.090393 L1068.80542,148.090393 L1068.84937,148.134033 C1068.86377,148.148498 1068.87109,148.192383 1068.87109,148.265014 C1068.63794,149.562988 1068.41162,150.824646 1068.19312,152.049499 C1068.10547,152.574463 1068.01099,153.121277 1067.90845,153.690185 C1067.8064,154.25885 1067.70435,154.820434 1067.60229,155.374573 C1067.50049,155.928711 1067.40576,156.461059 1067.31812,156.971313 C1067.23047,157.481811 1067.15039,157.948425 1067.07739,158.371338 C1066.91699,159.217224 1066.93164,159.913696 1067.12134,160.460449 C1067.31079,161.007263 1067.68994,161.280822 1068.25854,161.280822 C1068.55029,161.280822 1068.84937,161.185852 1069.15552,160.996521 C1069.46167,160.806884 1069.75732,160.507812 1070.04126,160.099609 C1070.32593,159.691162 1070.58472,159.176941 1070.81812,158.557312 C1071.05127,157.937622 1071.24097,157.197509 1071.38696,156.336914 C1071.61987,154.995544 1071.69312,153.923584 1071.60547,153.121277 C1071.51782,152.319336 1071.37231,151.696045 1071.16772,151.250976 C1070.96362,150.806213 1070.75952,150.481689 1070.55542,150.277588 C1070.35156,150.073486 1070.26392,149.891235 1070.29297,149.730774 C1070.30762,149.584838 1070.40967,149.384399 1070.59912,149.129272 C1070.78882,148.874145 1071.04028,148.618713 1071.354,148.363647 C1071.66748,148.10852 1072.03589,147.889648 1072.45874,147.707397 C1072.88135,147.525146 1073.34814,147.433838 1073.85864,147.433838 L1073.85864,147.433838 Z M1081.69165,163.621399 C1081.69165,163.650574 1081.67017,163.68689 1081.62622,163.730835 C1081.61182,163.7453 1081.59717,163.752685 1081.58252,163.752685 L1077.22925,163.752685 C1077.2146,163.752685 1077.2002,163.7453 1077.18579,163.730835 C1077.15649,163.70166 1077.14209,163.672485 1077.14209,163.643188 C1077.33154,162.695312 1077.51367,161.798401 1077.68896,160.952576 C1077.76172,160.588013 1077.83472,160.223511 1077.90747,159.858703 C1077.98071,159.494507 1078.05347,159.140686 1078.12622,158.797973 C1078.19897,158.455261 1078.26489,158.141723 1078.323,157.857422 C1078.38135,157.572876 1078.42505,157.335815 1078.45459,157.146484 C1078.5564,156.563171 1078.604,156.092834 1078.59668,155.735412 C1078.58911,155.378296 1078.55298,155.09021 1078.48706,154.87146 C1078.42163,154.652588 1078.33398,154.495788 1078.22461,154.401123 C1078.11548,154.306457 1078.01685,154.229675 1077.9292,154.171264 C1077.84204,154.113159 1077.77612,154.065796 1077.73267,154.029297 C1077.68896,153.992676 1077.68896,153.923584 1077.73267,153.821472 C1077.81982,153.64624 1077.96582,153.467712 1078.16992,153.2854 C1078.37402,153.10321 1078.61133,152.935364 1078.88086,152.782287 C1079.15088,152.629211 1079.43872,152.50531 1079.74512,152.4104 C1080.05127,152.315674 1080.35767,152.268432 1080.66382,152.268432 C1081.55347,152.268432 1082.23145,152.56372 1082.698,153.154175 C1083.16479,153.744995 1083.30322,154.557861 1083.11377,155.593445 C1083.06982,155.812011 1083.01904,156.092834 1082.96045,156.435547 C1082.9021,156.778259 1082.83301,157.157226 1082.75293,157.572876 C1082.67261,157.988647 1082.59253,158.426025 1082.51196,158.885559 C1082.43188,159.344726 1082.35522,159.800537 1082.28247,160.252685 C1082.09277,161.302673 1081.896,162.425476 1081.69165,163.621399 L1081.69165,163.621399 Z M1084.0105,149.643188 C1083.9668,149.934936 1083.854,150.20105 1083.67139,150.441772 C1083.48926,150.682373 1083.26685,150.897583 1083.00439,151.086853 C1082.74194,151.27655 1082.44653,151.422485 1082.11841,151.524536 C1081.79028,151.626648 1081.45142,151.677612 1081.10132,151.677612 C1080.75122,151.677612 1080.43042,151.626648 1080.13843,151.524536 C1079.84717,151.422485 1079.60278,151.27655 1079.40576,151.086853 C1079.20923,150.897583 1079.06689,150.682373 1078.97925,150.441772 C1078.89185,150.20105 1078.87012,149.934937 1078.91382,149.643188 C1078.95776,149.366211 1079.07056,149.10376 1079.25293,148.855713 C1079.43506,148.608032 1079.65747,148.392822 1079.92017,148.210571 C1080.18237,148.028259 1080.47803,147.882324 1080.80591,147.772949 C1081.13428,147.663757 1081.47314,147.608765 1081.82324,147.608765 C1082.17334,147.608765 1082.4939,147.663757 1082.78564,147.772949 C1083.07739,147.882324 1083.32178,148.028259 1083.51831,148.210571 C1083.71533,148.392822 1083.85742,148.608032 1083.94507,148.855713 C1084.03247,149.10376 1084.05444,149.366211 1084.0105,149.643188 L1084.0105,149.643188 Z M1096.17505,159.355835 C1096.073,159.939148 1096.02539,160.409424 1096.03271,160.766907 C1096.04004,161.124084 1096.08032,161.412109 1096.15308,161.630615 C1096.22607,161.849426 1096.31372,162.006226 1096.41577,162.100891 C1096.51782,162.195923 1096.60913,162.2724 1096.68896,162.33075 C1096.76929,162.38916 1096.8313,162.436523 1096.875,162.473084 C1096.91895,162.5094 1096.91162,162.578491 1096.85303,162.680542 C1096.76563,162.855774 1096.62354,163.034607 1096.42651,163.216675 C1096.22974,163.398865 1095.99658,163.56665 1095.72656,163.719727 C1095.45679,163.872803 1095.1687,163.996948 1094.86255,164.091675 C1094.55615,164.186646 1094.25,164.233948 1093.9436,164.233948 C1093.1853,164.233948 1092.57666,164.015137 1092.11719,163.577759 C1091.65771,163.140076 1091.42822,162.527466 1091.42822,161.740112 C1090.91772,162.454651 1090.33447,163.04541 1089.67847,163.511963 C1089.02222,163.978516 1088.30713,164.212097 1087.53442,164.212097 C1086.84912,164.212097 1086.26953,164.036987 1085.79541,163.68689 C1085.32153,163.337036 1084.95337,162.881226 1084.69067,162.319702 C1084.42822,161.758484 1084.26416,161.120361 1084.19849,160.405762 C1084.13281,159.691162 1084.16577,158.969421 1084.29712,158.240112 C1084.42822,157.496338 1084.65063,156.767212 1084.96411,156.052612 C1085.27783,155.338013 1085.67163,154.703613 1086.14551,154.149414 C1086.61914,153.595276 1087.15894,153.150513 1087.76416,152.815125 C1088.36938,152.479797 1089.0293,152.312012 1089.7439,152.312012 C1090.5022,152.312012 1091.11475,152.50531 1091.5813,152.891663 C1092.0481,153.278015 1092.39795,153.777771 1092.6311,154.390076 C1092.6604,154.15686 1092.69336,153.949036 1092.72974,153.766785 C1092.76611,153.584473 1092.79907,153.427734 1092.82812,153.296448 C1092.85742,153.136047 1092.87915,152.997437 1092.8938,152.880982 C1092.8938,152.851441 1092.91577,152.815125 1092.95947,152.771484 C1092.97388,152.756775 1092.99609,152.74939 1093.0249,152.74939 L1097.3999,152.74939 C1097.41455,152.74939 1097.4292,152.756775 1097.44385,152.771484 C1097.45825,152.78595 1097.46558,152.815125 1097.46558,152.858887 C1097.26123,153.806763 1097.07935,154.703613 1096.91894,155.549805 C1096.77295,156.278503 1096.63061,157.000488 1096.49219,157.715088 C1096.35376,158.42981 1096.2478,158.976562 1096.17505,159.355835 L1096.17505,159.355835 Z M1089.9187,161.193237 C1090.1814,161.193237 1090.4292,161.116699 1090.6626,160.963623 C1090.896,160.810547 1091.10718,160.599121 1091.29687,160.329285 C1091.48657,160.059387 1091.64697,159.745849 1091.77808,159.388672 C1091.90942,159.03125 1092.01147,158.648315 1092.08447,158.240112 C1092.15747,157.831909 1092.19019,157.445312 1092.18311,157.080749 C1092.17578,156.716186 1092.12817,156.398987 1092.04077,156.129394 C1091.95312,155.859253 1091.81812,155.647827 1091.63599,155.494751 C1091.45361,155.341675 1091.23145,155.265136 1090.96875,155.265136 C1090.7063,155.265136 1090.4585,155.341675 1090.2251,155.494751 C1089.99194,155.647827 1089.78052,155.859253 1089.59082,156.129394 C1089.40112,156.398987 1089.24072,156.716186 1089.10938,157.080749 C1088.97827,157.445312 1088.87622,157.831909 1088.80298,158.240112 C1088.73047,158.648315 1088.69751,159.03125 1088.70483,159.388672 C1088.71191,159.745849 1088.75928,160.059387 1088.84692,160.329285 C1088.93457,160.599121 1089.06958,160.810547 1089.25171,160.963623 C1089.43408,161.116699 1089.65625,161.193237 1089.9187,161.193237 L1089.9187,161.193237 Z M1116.71753,159.290039 C1116.61548,159.873413 1116.57178,160.343689 1116.58618,160.701111 C1116.60059,161.058289 1116.6521,161.346558 1116.73926,161.565125 C1116.8269,161.783936 1116.92896,161.940796 1117.04565,162.0354 C1117.16211,162.130371 1117.26807,162.206909 1117.36304,162.265015 C1117.45752,162.323425 1117.53052,162.374512 1117.58154,162.418335 C1117.63257,162.462097 1117.62915,162.534851 1117.5708,162.636902 C1117.48315,162.812073 1117.3374,162.987 1117.1333,163.162171 C1116.92896,163.337036 1116.69556,163.501221 1116.43311,163.654236 C1116.17065,163.807312 1115.88623,163.931213 1115.57983,164.026184 C1115.27368,164.12085 1114.96753,164.168213 1114.66162,164.168213 C1114.22388,164.168213 1113.82275,164.091675 1113.45825,163.93866 C1113.09375,163.785523 1112.79102,163.56665 1112.55029,163.28241 C1112.30981,162.998047 1112.13843,162.647949 1112.03638,162.232422 C1111.93433,161.816834 1111.927,161.353638 1112.0144,160.843506 C1112.0437,160.653809 1112.0874,160.398438 1112.14575,160.07782 C1112.2041,159.756714 1112.26953,159.399536 1112.34277,159.005737 C1112.41528,158.612 1112.48853,158.207215 1112.56128,157.791626 C1112.63428,157.37616 1112.70728,156.978699 1112.78027,156.599426 C1112.86743,156.059937 1112.82007,155.695435 1112.63794,155.50586 C1112.45557,155.316162 1112.22607,155.279602 1111.94873,155.396362 C1111.67188,155.513184 1111.39087,155.775391 1111.10669,156.183838 C1110.82227,156.592285 1110.62183,157.11731 1110.50513,157.759033 L1110.4397,158.152588 C1110.36646,158.517334 1110.28979,159.002136 1110.20972,159.607544 C1110.12939,160.212708 1110.04565,160.813965 1109.95825,161.41211 C1109.8562,162.112 1109.75391,162.848389 1109.65186,163.621399 C1109.63745,163.665344 1109.61548,163.70166 1109.58643,163.730835 C1109.57178,163.7453 1109.54956,163.752686 1109.52075,163.752686 L1105.146,163.752686 C1105.1311,163.752686 1105.11646,163.7453 1105.10205,163.730835 C1105.07275,163.70166 1105.06543,163.672486 1105.08008,163.643189 C1105.21143,162.870178 1105.33521,162.133789 1105.4519,161.43396 C1105.55396,160.82135 1105.65601,160.212708 1105.75806,159.607544 C1105.86011,159.002136 1105.94775,158.517334 1106.02075,158.152588 C1106.0791,157.890015 1106.13013,157.627503 1106.17383,157.365296 C1106.21777,157.102539 1106.26123,156.847412 1106.30518,156.599426 C1106.39258,156.059937 1106.34521,155.695435 1106.16284,155.50586 C1105.98071,155.316162 1105.75098,155.279602 1105.47388,155.396362 C1105.19702,155.513184 1104.91626,155.775391 1104.63159,156.183838 C1104.34741,156.592285 1104.14697,157.11731 1104.03003,157.759033 C1103.91333,158.386048 1103.79687,159.042298 1103.68018,159.727722 C1103.56323,160.412842 1103.4541,161.047547 1103.35181,161.630615 C1103.23535,162.31604 1103.1189,162.979614 1103.00195,163.621399 C1102.98755,163.665344 1102.96558,163.70166 1102.93652,163.730835 C1102.92188,163.7453 1102.8999,163.752686 1102.87085,163.752686 L1098.49585,163.752686 C1098.48096,163.752686 1098.46655,163.7453 1098.45215,163.730835 C1098.42285,163.70166 1098.41553,163.672486 1098.42993,163.643189 C1098.63452,162.695313 1098.81665,161.798401 1098.97705,160.952576 C1099.05005,160.588013 1099.1228,160.223511 1099.19604,159.858704 C1099.2688,159.494507 1099.33789,159.140686 1099.40356,158.797974 C1099.46924,158.455261 1099.53101,158.141724 1099.58936,157.857422 C1099.6477,157.572876 1099.69165,157.335816 1099.72095,157.146484 C1099.823,156.563171 1099.87036,156.092835 1099.86304,155.735413 C1099.85547,155.378296 1099.81567,155.09021 1099.74268,154.87146 C1099.66968,154.652588 1099.58228,154.495789 1099.47998,154.401123 C1099.37793,154.306458 1099.28687,154.229675 1099.20679,154.171265 C1099.12646,154.113159 1099.06421,154.065796 1099.02075,154.029297 C1098.97705,153.992676 1098.98413,153.923584 1099.04248,153.821472 C1099.13013,153.64624 1099.27246,153.467712 1099.46924,153.2854 C1099.66626,153.103211 1099.89575,152.935364 1100.1582,152.782288 C1100.42065,152.629211 1100.70508,152.50531 1101.01147,152.4104 C1101.31763,152.315674 1101.62402,152.268433 1101.93018,152.268433 C1102.70288,152.268433 1103.31934,152.490601 1103.77832,152.935364 C1104.23804,153.380127 1104.47485,153.996338 1104.48975,154.783814 C1105.10205,153.865112 1105.7727,153.216309 1106.50195,152.837036 C1107.23096,152.457703 1107.88013,152.268433 1108.44873,152.268433 C1109.14868,152.268433 1109.72485,152.497986 1110.177,152.957459 C1110.62915,153.416748 1110.86963,154.054749 1110.89868,154.87146 C1111.52588,153.908753 1112.20752,153.234375 1112.94409,152.848023 C1113.68066,152.461365 1114.34033,152.268433 1114.92358,152.268433 C1115.33228,152.268433 1115.7041,152.352234 1116.03931,152.519776 C1116.37476,152.687622 1116.6521,152.932007 1116.87085,153.252625 C1117.08936,153.573487 1117.24243,153.95636 1117.33008,154.401123 C1117.41772,154.845886 1117.41016,155.338013 1117.30811,155.877686 C1117.26416,156.111023 1117.22437,156.340576 1117.18774,156.566834 C1117.15137,156.792725 1117.11108,157.040772 1117.06763,157.310303 C1117.02393,157.5802 1116.9729,157.875549 1116.91455,158.196472 C1116.8562,158.517334 1116.79028,158.881836 1116.71753,159.290039 L1116.71753,159.290039 Z M1137.08496,159.290039 C1136.98291,159.873413 1136.93921,160.343689 1136.95361,160.701111 C1136.96826,161.058289 1137.01953,161.346558 1137.10669,161.565125 C1137.19434,161.783936 1137.29639,161.940796 1137.41284,162.0354 C1137.52979,162.130371 1137.6355,162.206909 1137.73022,162.265015 C1137.8252,162.323425 1137.89795,162.374512 1137.94897,162.418335 C1137.99976,162.462097 1137.99634,162.534851 1137.93823,162.636902 C1137.85059,162.812073 1137.70459,162.987 1137.50049,163.162171 C1137.29639,163.337036 1137.06323,163.501221 1136.80054,163.654236 C1136.53809,163.807312 1136.25366,163.931213 1135.94751,164.026184 C1135.64136,164.12085 1135.33496,164.168213 1135.02881,164.168213 C1134.59131,164.168213 1134.19019,164.091675 1133.82568,163.93866 C1133.46118,163.785523 1133.15845,163.56665 1132.91772,163.28241 C1132.67749,162.998047 1132.50586,162.647949 1132.40381,162.232422 C1132.30176,161.816834 1132.29443,161.353638 1132.38184,160.843506 C1132.41089,160.653809 1132.45483,160.398438 1132.51294,160.07782 C1132.57129,159.756714 1132.63721,159.399536 1132.70996,159.005737 C1132.78271,158.612 1132.85596,158.207215 1132.92871,157.791626 C1133.00171,157.37616 1133.07446,156.978699 1133.1477,156.599426 C1133.23486,156.059937 1133.1875,155.695435 1133.00537,155.50586 C1132.823,155.316162 1132.59351,155.279602 1132.31616,155.396362 C1132.03931,155.513184 1131.7583,155.775391 1131.47412,156.183838 C1131.1897,156.592285 1130.98926,157.11731 1130.87256,157.759033 L1130.80688,158.152588 C1130.73389,158.517334 1130.65747,159.002136 1130.57715,159.607544 C1130.49683,160.212708 1130.41309,160.813965 1130.32568,161.41211 C1130.22363,162.112 1130.12134,162.848389 1130.01929,163.621399 C1130.00464,163.665344 1129.98315,163.70166 1129.95361,163.730835 C1129.93921,163.7453 1129.91724,163.752686 1129.88818,163.752686 L1125.51318,163.752686 C1125.49854,163.752686 1125.48389,163.7453 1125.46948,163.730835 C1125.44019,163.70166 1125.43286,163.672486 1125.44751,163.643189 C1125.57886,162.870178 1125.70264,162.133789 1125.81958,161.43396 C1125.92163,160.82135 1126.02344,160.212708 1126.12573,159.607544 C1126.22778,159.002136 1126.31519,158.517334 1126.38818,158.152588 C1126.44653,157.890015 1126.49756,157.627503 1126.54126,157.365296 C1126.58496,157.102539 1126.62891,156.847412 1126.67236,156.599426 C1126.76001,156.059937 1126.71265,155.695435 1126.53027,155.50586 C1126.3479,155.316162 1126.11841,155.279602 1125.84131,155.396362 C1125.56421,155.513184 1125.28345,155.775391 1124.99927,156.183838 C1124.71484,156.592285 1124.51416,157.11731 1124.39746,157.759033 C1124.28076,158.386048 1124.16406,159.042298 1124.04761,159.727722 C1123.93091,160.412842 1123.82129,161.047547 1123.71924,161.630615 C1123.60278,162.31604 1123.48608,162.979614 1123.36963,163.621399 C1123.35474,163.665344 1123.33301,163.70166 1123.30371,163.730835 C1123.28931,163.7453 1123.26709,163.752686 1123.23828,163.752686 L1118.86328,163.752686 C1118.84839,163.752686 1118.83398,163.7453 1118.81934,163.730835 C1118.79053,163.70166 1118.78296,163.672486 1118.79761,163.643189 C1119.00195,162.695313 1119.18384,161.798401 1119.34473,160.952576 C1119.41748,160.588013 1119.49023,160.223511 1119.56323,159.858704 C1119.63599,159.494507 1119.70557,159.140686 1119.771,158.797974 C1119.83667,158.455261 1119.89844,158.141724 1119.95679,157.857422 C1120.01538,157.572876 1120.05933,157.335816 1120.08813,157.146484 C1120.19019,156.563171 1120.23779,156.092835 1120.23047,155.735413 C1120.22314,155.378296 1120.18311,155.09021 1120.11035,154.87146 C1120.03711,154.652588 1119.94971,154.495789 1119.84741,154.401123 C1119.74536,154.306458 1119.6543,154.229675 1119.57422,154.171265 C1119.4939,154.113159 1119.43188,154.065796 1119.38818,154.029297 C1119.34473,153.992676 1119.35181,153.923584 1119.41016,153.821472 C1119.4978,153.64624 1119.63965,153.467712 1119.83667,153.2854 C1120.03369,153.103211 1120.26343,152.935364 1120.52588,152.782288 C1120.78809,152.629211 1121.07251,152.50531 1121.37866,152.4104 C1121.6853,152.315674 1121.99121,152.268433 1122.29736,152.268433 C1123.07031,152.268433 1123.68652,152.490601 1124.146,152.935364 C1124.60522,153.380127 1124.84253,153.996338 1124.85693,154.783814 C1125.46948,153.865112 1126.14014,153.216309 1126.86938,152.837036 C1127.59863,152.457703 1128.24731,152.268433 1128.81641,152.268433 C1129.51611,152.268433 1130.09229,152.497986 1130.54419,152.957459 C1130.99634,153.416748 1131.23706,154.054749 1131.26636,154.87146 C1131.89331,153.908753 1132.57495,153.234375 1133.31152,152.848023 C1134.04785,152.461365 1134.70776,152.268433 1135.29126,152.268433 C1135.69946,152.268433 1136.07153,152.352234 1136.40698,152.519776 C1136.74219,152.687622 1137.01953,152.932007 1137.23804,153.252625 C1137.45679,153.573487 1137.60986,153.95636 1137.69751,154.401123 C1137.78516,154.845886 1137.77783,155.338013 1137.67578,155.877686 C1137.63184,156.111023 1137.5918,156.340576 1137.55518,156.566834 C1137.51904,156.792725 1137.47852,157.040772 1137.43506,157.310303 C1137.39111,157.5802 1137.34009,157.875549 1137.28198,158.196472 C1137.22339,158.517334 1137.15771,158.881836 1137.08496,159.290039 L1137.08496,159.290039 Z M1149.75244,160.361816 C1149.84009,160.434936 1149.84717,160.551453 1149.77417,160.711914 C1149.67212,160.945496 1149.45703,161.258972 1149.12891,161.65271 C1148.80078,162.046509 1148.38159,162.432861 1147.87134,162.812073 C1147.36084,163.191101 1146.77002,163.519348 1146.09937,163.796265 C1145.42847,164.073486 1144.69214,164.212097 1143.89014,164.212097 C1143.05859,164.212097 1142.31152,164.055115 1141.64795,163.741882 C1140.98437,163.42804 1140.43384,163.001709 1139.99609,162.462097 C1139.55859,161.922302 1139.24902,161.291565 1139.06665,160.569946 C1138.88452,159.8479 1138.86597,159.071472 1139.01196,158.240112 C1139.14331,157.437866 1139.42017,156.679626 1139.84302,155.965027 C1140.26611,155.250732 1140.79834,154.619995 1141.44019,154.072937 C1142.08154,153.526062 1142.8147,153.092346 1143.63843,152.771484 C1144.4624,152.450623 1145.34814,152.290222 1146.29614,152.290222 C1147.18555,152.290222 1147.93311,152.414063 1148.53833,152.662048 C1149.14355,152.909912 1149.62109,153.223633 1149.97119,153.6026 C1150.32104,153.981873 1150.55444,154.393799 1150.6709,154.838501 C1150.78784,155.283325 1150.81689,155.70282 1150.75854,156.096558 C1150.59839,156.956848 1150.25171,157.638672 1149.71948,158.141724 C1149.18726,158.644898 1148.5603,159.013123 1147.83838,159.246399 C1147.11645,159.479736 1146.35449,159.603577 1145.55249,159.618286 C1144.75049,159.633057 1143.99951,159.582031 1143.29932,159.46521 C1143.38696,160.019409 1143.62036,160.44574 1143.99951,160.744812 C1144.37842,161.043823 1144.85229,161.229798 1145.4209,161.302673 C1145.98999,161.375488 1146.62451,161.33551 1147.32422,161.182434 C1148.02441,161.029114 1148.73877,160.76294 1149.46802,160.383911 C1149.59937,160.310791 1149.69409,160.303711 1149.75244,160.361816 L1149.75244,160.361816 Z M1145.04956,154.980835 C1144.64111,155.199707 1144.30933,155.545776 1144.05396,156.019775 C1143.79883,156.493652 1143.59839,157.000488 1143.45239,157.539917 C1144.41504,157.627502 1145.16577,157.511108 1145.70581,157.190186 C1146.24512,156.869324 1146.56592,156.410034 1146.66797,155.812012 C1146.72656,155.520264 1146.66431,155.265137 1146.48218,155.04657 C1146.2998,154.827759 1146.04102,154.732788 1145.70581,154.761963 C1145.70581,154.761963 1145.69092,154.769348 1145.66187,154.783814 L1145.59619,154.783814 C1145.4209,154.812988 1145.23877,154.878784 1145.04956,154.980835 L1145.04956,154.980835 Z" id="Shape"></path>
        </g>
    </g>
</svg>